<svg width="36" height="36" viewBox="0 0 36 36" fill="none" xmlns="http://www.w3.org/2000/svg">
<rect width="36" height="36" rx="10" fill="#1473E9"/>
<path d="M21.4631 17.7315C21.4631 18.7469 21.2631 19.7522 20.8746 20.6903C20.486 21.6283 19.9165 22.4806 19.1986 23.1986C18.4806 23.9165 17.6283 24.486 16.6903 24.8746C15.7522 25.2631 14.7469 25.4631 13.7315 25.4631C12.7162 25.4631 11.7108 25.2631 10.7728 24.8746C9.83478 24.486 8.98246 23.9165 8.26452 23.1986C7.54658 22.4806 6.97707 21.6283 6.58853 20.6903C6.19998 19.7522 6 18.7469 6 17.7315L13.7315 17.7315H21.4631Z" fill="white" fill-opacity="0.56"/>
<path d="M14.5369 17.7315C14.5369 16.7162 14.7369 15.7108 15.1254 14.7728C15.514 13.8348 16.0835 12.9825 16.8014 12.2645C17.5194 11.5466 18.3717 10.9771 19.3097 10.5885C20.2478 10.2 21.2531 9.99999 22.2685 9.99999C23.2838 9.99999 24.2892 10.2 25.2272 10.5885C26.1652 10.9771 27.0175 11.5466 27.7355 12.2645C28.4534 12.9825 29.0229 13.8348 29.4115 14.7728C29.8 15.7108 30 16.7162 30 17.7315L22.2685 17.7315L14.5369 17.7315Z" fill="white"/>
</svg>
