<svg width="31" height="30" viewBox="0 0 31 30" fill="none" xmlns="http://www.w3.org/2000/svg">
<g filter="url(#filter0_d)">
<path d="M13.32 13.28H16.41V20.48C16.41 21.54 17.73 22.04 18.43 21.24L26 12.64C26.66 11.89 26.13 10.72 25.13 10.72H22.04V3.52C22.04 2.46 20.72 1.96 20.02 2.76L12.45 11.36C11.8 12.11 12.33 13.28 13.32 13.28Z" fill="#9497B2"/>
<path d="M12.5 4.75H5.5C5.09 4.75 4.75 4.41 4.75 4C4.75 3.59 5.09 3.25 5.5 3.25H12.5C12.91 3.25 13.25 3.59 13.25 4C13.25 4.41 12.91 4.75 12.5 4.75Z" fill="#9497B2"/>
<path d="M11.5 20.75H5.5C5.09 20.75 4.75 20.41 4.75 20C4.75 19.59 5.09 19.25 5.5 19.25H11.5C11.91 19.25 12.25 19.59 12.25 20C12.25 20.41 11.91 20.75 11.5 20.75Z" fill="#9497B2"/>
<path d="M8.5 12.75H5.5C5.09 12.75 4.75 12.41 4.75 12C4.75 11.59 5.09 11.25 5.5 11.25H8.5C8.91 11.25 9.25 11.59 9.25 12C9.25 12.41 8.91 12.75 8.5 12.75Z" fill="#9497B2"/>
</g>
<defs>
<filter id="filter0_d" x="0" y="0" width="32" height="32" filterUnits="userSpaceOnUse" color-interpolation-filters="sRGB">
<feFlood flood-opacity="0" result="BackgroundImageFix"/>
<feColorMatrix in="SourceAlpha" type="matrix" values="0 0 0 0 0 0 0 0 0 0 0 0 0 0 0 0 0 0 127 0" result="hardAlpha"/>
<feOffset dy="4"/>
<feGaussianBlur stdDeviation="2"/>
<feComposite in2="hardAlpha" operator="out"/>
<feColorMatrix type="matrix" values="0 0 0 0 0 0 0 0 0 0 0 0 0 0 0 0 0 0 0.25 0"/>
<feBlend mode="normal" in2="BackgroundImageFix" result="effect1_dropShadow"/>
<feBlend mode="normal" in="SourceGraphic" in2="effect1_dropShadow" result="shape"/>
</filter>
</defs>
</svg>
